<svg width="500" height="50" viewBox="0 0 500 50" fill="none" xmlns="http://www.w3.org/2000/svg">
<rect x="119" y="19" width="262" height="10" fill="#C4C4C4"/>
<rect width="17" height="2" transform="matrix(1 0 0 -1 470 25)" fill="#C4C4C4"/>
<rect width="17" height="2" transform="matrix(1 0 0 -1 470 21)" fill="#C4C4C4"/>
<rect width="17" height="2" transform="matrix(1 0 0 -1 470 29)" fill="#C4C4C4"/>
<path d="M25.004 27.5V28.508H20V20.192H21.164V27.5H25.004Z" fill="#C4C4C4"/>
<path d="M25.3476 24.344C25.3476 23.632 25.4516 23.004 25.6596 22.46C25.8756 21.916 26.1636 21.464 26.5236 21.104C26.8916 20.736 27.3156 20.46 27.7956 20.276C28.2836 20.092 28.7996 20 29.3436 20C29.8796 20 30.3836 20.092 30.8556 20.276C31.3356 20.46 31.7556 20.736 32.1156 21.104C32.4756 21.464 32.7596 21.916 32.9676 22.46C33.1836 23.004 33.2916 23.632 33.2916 24.344C33.2916 25.056 33.1836 25.684 32.9676 26.228C32.7596 26.772 32.4756 27.228 32.1156 27.596C31.7556 27.956 31.3356 28.228 30.8556 28.412C30.3836 28.596 29.8796 28.688 29.3436 28.688C28.7996 28.688 28.2836 28.596 27.7956 28.412C27.3156 28.228 26.8916 27.956 26.5236 27.596C26.1636 27.228 25.8756 26.772 25.6596 26.228C25.4516 25.684 25.3476 25.056 25.3476 24.344ZM26.5716 24.344C26.5716 24.848 26.6356 25.308 26.7636 25.724C26.8916 26.132 27.0716 26.48 27.3036 26.768C27.5436 27.056 27.8316 27.28 28.1676 27.44C28.5116 27.592 28.8956 27.668 29.3196 27.668C29.7436 27.668 30.1236 27.592 30.4596 27.44C30.7956 27.28 31.0796 27.056 31.3116 26.768C31.5516 26.48 31.7356 26.132 31.8636 25.724C31.9916 25.308 32.0556 24.848 32.0556 24.344C32.0556 23.84 31.9916 23.384 31.8636 22.976C31.7356 22.56 31.5516 22.208 31.3116 21.92C31.0796 21.632 30.7956 21.412 30.4596 21.26C30.1236 21.1 29.7436 21.02 29.3196 21.02C28.8956 21.02 28.5116 21.1 28.1676 21.26C27.8316 21.412 27.5436 21.632 27.3036 21.92C27.0716 22.208 26.8916 22.56 26.7636 22.976C26.6356 23.384 26.5716 23.84 26.5716 24.344Z" fill="#C4C4C4"/>
<path d="M40.0994 24.416H41.2634V28.304C41.1674 28.336 41.0274 28.372 40.8434 28.412C40.6674 28.452 40.4594 28.492 40.2194 28.532C39.9874 28.572 39.7314 28.604 39.4514 28.628C39.1714 28.66 38.8874 28.676 38.5994 28.676C38.0154 28.676 37.4834 28.58 37.0034 28.388C36.5234 28.196 36.1114 27.916 35.7674 27.548C35.4234 27.18 35.1554 26.728 34.9634 26.192C34.7794 25.656 34.6874 25.04 34.6874 24.344C34.6874 23.648 34.7914 23.032 34.9994 22.496C35.2154 21.952 35.5034 21.496 35.8634 21.128C36.2234 20.76 36.6434 20.48 37.1234 20.288C37.6114 20.096 38.1314 20 38.6834 20C39.0594 20 39.3914 20.024 39.6794 20.072C39.9754 20.12 40.2274 20.176 40.4354 20.24C40.6434 20.304 40.8114 20.368 40.9394 20.432C41.0754 20.496 41.1674 20.544 41.2154 20.576L40.8434 21.548C40.6114 21.396 40.3034 21.272 39.9194 21.176C39.5354 21.072 39.1434 21.02 38.7434 21.02C38.3194 21.02 37.9314 21.096 37.5794 21.248C37.2354 21.4 36.9394 21.62 36.6914 21.908C36.4514 22.196 36.2634 22.548 36.1274 22.964C35.9914 23.372 35.9234 23.832 35.9234 24.344C35.9234 24.84 35.9794 25.292 36.0914 25.7C36.2114 26.108 36.3874 26.46 36.6194 26.756C36.8594 27.044 37.1514 27.268 37.4954 27.428C37.8474 27.588 38.2594 27.668 38.7314 27.668C39.0674 27.668 39.3514 27.652 39.5834 27.62C39.8234 27.58 39.9954 27.544 40.0994 27.512V24.416Z" fill="#C4C4C4"/>
<path d="M42.7499 24.344C42.7499 23.632 42.8539 23.004 43.0619 22.46C43.2779 21.916 43.5659 21.464 43.9259 21.104C44.2939 20.736 44.7179 20.46 45.1979 20.276C45.6859 20.092 46.2019 20 46.7459 20C47.2819 20 47.7859 20.092 48.2579 20.276C48.7379 20.46 49.1579 20.736 49.5179 21.104C49.8779 21.464 50.1619 21.916 50.3699 22.46C50.5859 23.004 50.6939 23.632 50.6939 24.344C50.6939 25.056 50.5859 25.684 50.3699 26.228C50.1619 26.772 49.8779 27.228 49.5179 27.596C49.1579 27.956 48.7379 28.228 48.2579 28.412C47.7859 28.596 47.2819 28.688 46.7459 28.688C46.2019 28.688 45.6859 28.596 45.1979 28.412C44.7179 28.228 44.2939 27.956 43.9259 27.596C43.5659 27.228 43.2779 26.772 43.0619 26.228C42.8539 25.684 42.7499 25.056 42.7499 24.344ZM43.9739 24.344C43.9739 24.848 44.0379 25.308 44.1659 25.724C44.2939 26.132 44.4739 26.48 44.7059 26.768C44.9459 27.056 45.2339 27.28 45.5699 27.44C45.9139 27.592 46.2979 27.668 46.7219 27.668C47.1459 27.668 47.5259 27.592 47.8619 27.44C48.1979 27.28 48.4819 27.056 48.7139 26.768C48.9539 26.48 49.1379 26.132 49.2659 25.724C49.3939 25.308 49.4579 24.848 49.4579 24.344C49.4579 23.84 49.3939 23.384 49.2659 22.976C49.1379 22.56 48.9539 22.208 48.7139 21.92C48.4819 21.632 48.1979 21.412 47.8619 21.26C47.5259 21.1 47.1459 21.02 46.7219 21.02C46.2979 21.02 45.9139 21.1 45.5699 21.26C45.2339 21.412 44.9459 21.632 44.7059 21.92C44.4739 22.208 44.2939 22.56 44.1659 22.976C44.0379 23.384 43.9739 23.84 43.9739 24.344Z" fill="#C4C4C4"/>
</svg>
