<svg width="500" height="50" viewBox="0 0 500 50" fill="none" xmlns="http://www.w3.org/2000/svg">
<rect x="20" y="19" width="113" height="10" fill="#C4C4C4"/>
<rect x="370" y="19" width="113" height="10" fill="#C4C4C4"/>
<path d="M240.004 27.5V28.508H235V20.192H236.164V27.5H240.004Z" fill="#C4C4C4"/>
<path d="M240.348 24.344C240.348 23.632 240.452 23.004 240.66 22.46C240.876 21.916 241.164 21.464 241.524 21.104C241.892 20.736 242.316 20.46 242.796 20.276C243.284 20.092 243.8 20 244.344 20C244.88 20 245.384 20.092 245.856 20.276C246.336 20.46 246.756 20.736 247.116 21.104C247.476 21.464 247.76 21.916 247.968 22.46C248.184 23.004 248.292 23.632 248.292 24.344C248.292 25.056 248.184 25.684 247.968 26.228C247.76 26.772 247.476 27.228 247.116 27.596C246.756 27.956 246.336 28.228 245.856 28.412C245.384 28.596 244.88 28.688 244.344 28.688C243.8 28.688 243.284 28.596 242.796 28.412C242.316 28.228 241.892 27.956 241.524 27.596C241.164 27.228 240.876 26.772 240.66 26.228C240.452 25.684 240.348 25.056 240.348 24.344ZM241.572 24.344C241.572 24.848 241.636 25.308 241.764 25.724C241.892 26.132 242.072 26.48 242.304 26.768C242.544 27.056 242.832 27.28 243.168 27.44C243.512 27.592 243.896 27.668 244.32 27.668C244.744 27.668 245.124 27.592 245.46 27.44C245.796 27.28 246.08 27.056 246.312 26.768C246.552 26.48 246.736 26.132 246.864 25.724C246.992 25.308 247.056 24.848 247.056 24.344C247.056 23.84 246.992 23.384 246.864 22.976C246.736 22.56 246.552 22.208 246.312 21.92C246.08 21.632 245.796 21.412 245.46 21.26C245.124 21.1 244.744 21.02 244.32 21.02C243.896 21.02 243.512 21.1 243.168 21.26C242.832 21.412 242.544 21.632 242.304 21.92C242.072 22.208 241.892 22.56 241.764 22.976C241.636 23.384 241.572 23.84 241.572 24.344Z" fill="#C4C4C4"/>
<path d="M255.099 24.416H256.263V28.304C256.167 28.336 256.027 28.372 255.843 28.412C255.667 28.452 255.459 28.492 255.219 28.532C254.987 28.572 254.731 28.604 254.451 28.628C254.171 28.66 253.887 28.676 253.599 28.676C253.015 28.676 252.483 28.58 252.003 28.388C251.523 28.196 251.111 27.916 250.767 27.548C250.423 27.18 250.155 26.728 249.963 26.192C249.779 25.656 249.687 25.04 249.687 24.344C249.687 23.648 249.791 23.032 249.999 22.496C250.215 21.952 250.503 21.496 250.863 21.128C251.223 20.76 251.643 20.48 252.123 20.288C252.611 20.096 253.131 20 253.683 20C254.059 20 254.391 20.024 254.679 20.072C254.975 20.12 255.227 20.176 255.435 20.24C255.643 20.304 255.811 20.368 255.939 20.432C256.075 20.496 256.167 20.544 256.215 20.576L255.843 21.548C255.611 21.396 255.303 21.272 254.919 21.176C254.535 21.072 254.143 21.02 253.743 21.02C253.319 21.02 252.931 21.096 252.579 21.248C252.235 21.4 251.939 21.62 251.691 21.908C251.451 22.196 251.263 22.548 251.127 22.964C250.991 23.372 250.923 23.832 250.923 24.344C250.923 24.84 250.979 25.292 251.091 25.7C251.211 26.108 251.387 26.46 251.619 26.756C251.859 27.044 252.151 27.268 252.495 27.428C252.847 27.588 253.259 27.668 253.731 27.668C254.067 27.668 254.351 27.652 254.583 27.62C254.823 27.58 254.995 27.544 255.099 27.512V24.416Z" fill="#C4C4C4"/>
<path d="M257.75 24.344C257.75 23.632 257.854 23.004 258.062 22.46C258.278 21.916 258.566 21.464 258.926 21.104C259.294 20.736 259.718 20.46 260.198 20.276C260.686 20.092 261.202 20 261.746 20C262.282 20 262.786 20.092 263.258 20.276C263.738 20.46 264.158 20.736 264.518 21.104C264.878 21.464 265.162 21.916 265.37 22.46C265.586 23.004 265.694 23.632 265.694 24.344C265.694 25.056 265.586 25.684 265.37 26.228C265.162 26.772 264.878 27.228 264.518 27.596C264.158 27.956 263.738 28.228 263.258 28.412C262.786 28.596 262.282 28.688 261.746 28.688C261.202 28.688 260.686 28.596 260.198 28.412C259.718 28.228 259.294 27.956 258.926 27.596C258.566 27.228 258.278 26.772 258.062 26.228C257.854 25.684 257.75 25.056 257.75 24.344ZM258.974 24.344C258.974 24.848 259.038 25.308 259.166 25.724C259.294 26.132 259.474 26.48 259.706 26.768C259.946 27.056 260.234 27.28 260.57 27.44C260.914 27.592 261.298 27.668 261.722 27.668C262.146 27.668 262.526 27.592 262.862 27.44C263.198 27.28 263.482 27.056 263.714 26.768C263.954 26.48 264.138 26.132 264.266 25.724C264.394 25.308 264.458 24.848 264.458 24.344C264.458 23.84 264.394 23.384 264.266 22.976C264.138 22.56 263.954 22.208 263.714 21.92C263.482 21.632 263.198 21.412 262.862 21.26C262.526 21.1 262.146 21.02 261.722 21.02C261.298 21.02 260.914 21.1 260.57 21.26C260.234 21.412 259.946 21.632 259.706 21.92C259.474 22.208 259.294 22.56 259.166 22.976C259.038 23.384 258.974 23.84 258.974 24.344Z" fill="#C4C4C4"/>
</svg>
