<svg height="512pt" viewBox="0 0 512 512" width="512pt" xmlns="http://www.w3.org/2000/svg"><path d="m0 96v-76c0-11.046875 8.953125-20 20-20h76c11.046875 0 20 8.953125 20 20s-8.953125 20-20 20h-56v56c0 11.046875-8.953125 20-20 20s-20-8.953125-20-20zm492-96h-76c-11.046875 0-20 8.953125-20 20s8.953125 20 20 20h56v56c0 11.046875 8.953125 20 20 20s20-8.953125 20-20v-76c0-11.046875-8.953125-20-20-20zm-396 472h-56v-56c0-11.046875-8.953125-20-20-20s-20 8.953125-20 20v76c0 11.046875 8.953125 20 20 20h76c11.046875 0 20-8.953125 20-20s-8.953125-20-20-20zm396-76c-11.046875 0-20 8.953125-20 20v56h-56c-11.046875 0-20 8.953125-20 20s8.953125 20 20 20h76c11.046875 0 20-8.953125 20-20v-76c0-11.046875-8.953125-20-20-20zm-253.5-297.5v120c0 11.046875-8.953125 20-20 20h-120c-11.046875 0-20-8.953125-20-20v-120c0-11.046875 8.953125-20 20-20h120c11.046875 0 20 8.953125 20 20zm-40 20h-80v80h80zm225 120h-120c-11.046875 0-20-8.953125-20-20v-120c0-11.046875 8.953125-20 20-20h120c11.046875 0 20 8.953125 20 20v120c0 11.046875-8.953125 20-20 20zm-20-120h-80v80h80zm-165 185v120c0 11.046875-8.953125 20-20 20h-120c-11.046875 0-20-8.953125-20-20v-120c0-11.046875 8.953125-20 20-20h120c11.046875 0 20 8.953125 20 20zm-40 20h-80v80h80zm199.25 94.25h-68.5c-11.046875 0-20-8.953125-20-20v-68.5c0-11.046875 8.953125-20 20-20h68.5c11.046875 0 20 8.953125 20 20v68.5c0 11.046875-8.953125 20-20 20zm-20-68.5h-28.5v28.5h28.5zm0 0"/></svg>